HIERARCHY
ROOT ui
{
	 OFFSET 0 0 0
	 CHANNELS 3 XPosition YPosition Z Position
	 EndSite
	 {
	 OFFSET 0 -1 0
	 }
}
ROOT li
{
	 OFFSET 0 0 0
	 CHANNELS 3 XPosition YPosition Z Position
	 EndSite
	 {
	 OFFSET 0 -1 0
	 }
}
ROOT ul
{
	 OFFSET 0 0 0
	 CHANNELS 3 XPosition YPosition Z Position
	 EndSite
	 {
	 OFFSET 0 -1 0
	 }
}
ROOT ll
{
	 OFFSET 0 0 0
	 CHANNELS 3 XPosition YPosition Z Position
	 EndSite
	 {
	 OFFSET 0 -1 0
	 }
}
ROOT tt
{
	 OFFSET 0 0 0
	 CHANNELS 3 XPosition YPosition Z Position
	 EndSite
	 {
	 OFFSET 0 -1 0
	 }
}
ROOT tb
{
	 OFFSET 0 0 0
	 CHANNELS 3 XPosition YPosition Z Position
	 EndSite
	 {
	 OFFSET 0 -1 0
	 }
}
ROOT td
{
	 OFFSET 0 0 0
	 CHANNELS 3 XPosition YPosition Z Position
	 EndSite
	 {
	 OFFSET 0 -1 0
	 }
}
ROOT v
{
	 OFFSET 0 0 0
	 CHANNELS 3 XPosition YPosition Z Position
	 EndSite
	 {
	 OFFSET 0 -1 0
	 }
}
ROOT bn
{
	 OFFSET 0 0 0
	 CHANNELS 3 XPosition YPosition Z Position
	 EndSite
	 {
	 OFFSET 0 -1 0
	 }
}
MOTION
Frames: 16
Frame Time: 0.002
0.007075914859771729	-0.0013042320013046265	0		0.5788446044921876	-2.61044677734375	0		-0.9603021240234375	0.24066627502441407	0		-0.6177118530273438	-2.701976318359375	0		1.075597900390625	-0.9469208984375	0		2.80687109375	-0.6836298828125	0		4.3491552734375	-0.353411865234375	0		5.98426025390625	0.4824328308105469	0		-0.09978333282470703	5.96505810546875	0		
0.007278501987457275	-0.0017891980409622192	0		0.564050048828125	-2.61468603515625	0		-0.9920398559570313	0.24465106201171874	0		-0.6473019409179688	-2.6930146484375	0		1.0691324462890626	-0.9272745971679688	0		2.814135498046875	-0.6811558227539063	0		4.352443359375	-0.3488392639160156	0		5.98858984375	0.4910288391113281	0		-0.16688591003417969	5.95460498046875	0		
0.006612422943115234	0.0057493882179260256	0		0.5834423217773438	-2.607442626953125	0		-0.9188436279296875	0.24302789306640624	0		-0.6558737182617187	-2.683368408203125	0		1.0663033447265624	-0.9316790771484375	0		2.80731640625	-0.6844583129882813	0		4.343708984375	-0.3460758972167969	0		5.9887890625	0.4906920166015625	0		-0.13370988464355468	5.9606162109375	0		
0.007704634189605713	-0.0027276930809020995	0		0.5557194213867187	-2.6074619140625	0		-0.99568603515625	0.23972894287109375	0		-0.6447225341796875	-2.692013916015625	0		1.063493896484375	-0.935071533203125	0		2.82354541015625	-0.6851043090820312	0		4.345716796875	-0.3604705810546875	0		5.9889931640625	0.4903632507324219	0		-0.1336278076171875	5.960150390625	0		
0.01196564769744873	-2.3496200144290923E-4	0		0.6079083251953125	-2.613693359375	0		-0.9594801025390625	0.23870896911621095	0		-0.657355224609375	-2.686274658203125	0		1.054776611328125	-0.9323563842773438	0		2.782841796875	-0.6808598022460938	0		4.3338955078125	-0.3636375732421875	0		5.9891982421875	0.4900472412109375	0		-0.10046858215332032	5.9641943359375	0		
-0.022790939331054687	0.0018769880533218383	0		0.5562549438476563	-2.608308349609375	0		-0.9852887573242187	0.2376627655029297	0		-0.64012255859375	-2.6889736328125	0		1.0550048828125	-0.9327588500976562	0		2.78614111328125	-0.6762723388671875	0		4.33898828125	-0.3720465087890625	0		5.9935185546875	0.49768667602539063	0		-0.10312486267089843	5.9808115234375	0		
0.015414608001708985	0.0018945059776306152	0		0.58653076171875	-2.607156494140625	0		-0.9761000366210938	0.23710455322265625	0		-0.63275048828125	-2.6814951171875	0		1.0352825927734375	-0.9288312377929687	0		2.823299560546875	-0.680180908203125	0		4.3463583984375	-0.36146524047851564	0		5.993703125	0.49741067504882813	0		-0.10306919860839844	5.97940966796875	0		
-0.010392955780029297	0.0029204559326171877	0		0.551975830078125	-2.59298291015625	0		-0.9908524780273438	0.24194174194335938	0		-0.6532749633789062	-2.665560546875	0		1.059686767578125	-0.91555078125	0		2.792659423828125	-0.6690228271484375	0		4.3375869140625	-0.35861181640625	0		5.9938671875	0.49716015625	0		-0.13333372497558593	5.9584970703125	0		
0.007767343044281006	0.00330452299118042	0		0.575064453125	-2.600663330078125	0		-0.95371435546875	0.24101646423339843	0		-0.6679972534179688	-2.660685546875	0		1.0348243408203126	-0.9174885864257812	0		2.782729248046875	-0.6751551513671875	0		4.33464990234375	-0.3648206787109375	0		5.9898828125	0.4889993896484375	0		-0.10023123931884766	5.96264892578125	0		
-0.01811567497253418	0.0033939568996429444	0		0.5492611083984374	-2.598563232421875	0		-0.9946611328125	0.23731700134277345	0		-0.6569714965820312	-2.67017236328125	0		1.0518316650390624	-0.9260347290039063	0		2.788977294921875	-0.6675023803710938	0		4.33964794921875	-0.3731213989257812	0		5.98998779296875	0.4888052673339844	0		-0.10118401336669922	5.9653544921875	0		
0.0038961710929870607	-0.0012134430408477783	0		0.5753493041992187	-2.6012216796875	0		-0.9846063232421876	0.23587469482421874	0		-0.6527880859375	-2.666517822265625	0		1.0289415283203125	-0.9249380493164062	0		2.792140380859375	-0.6627713623046875	0		4.3348525390625	-0.36524124145507814	0		5.99005419921875	0.4886395568847656	0		-0.13333299255371095	5.95756884765625	0		
-0.022930877685546875	0.00796003293991089	0		0.5545639038085938	-2.59213037109375	0		-0.9845773315429688	0.2356221923828125	0		-0.6496513061523438	-2.66281103515625	0		1.051971435546875	-0.9265076904296875	0		2.7993203125	-0.6540699462890625	0		4.331861328125	-0.36736126708984373	0		5.986201171875	0.496560546875	0		-0.11823146057128907	5.9681005859375	0		
0.007977656841278076	0.002288577079772949	0		0.5525590209960938	-2.5942919921875	0		-0.9905157470703125	0.24049842834472657	0		-0.6845753173828125	-2.65948876953125	0		1.04606494140625	-0.9206024780273437	0		2.808271240234375	-0.6573667602539063	0		4.32900732421875	-0.3574552612304687	0		5.990060546875	0.48838583374023437	0		-0.13349400329589844	5.9571279296875	0		
-0.018075700759887695	0.0025188190937042235	0		0.5436712646484375	-2.585314697265625	0		-0.990574951171875	0.24032179260253905	0		-0.6516798706054687	-2.66516259765625	0		1.0848934326171875	-0.9293465576171875	0		2.820236572265625	-0.6566807861328126	0		4.31795654296875	-0.357401611328125	0		5.98999853515625	0.48829205322265623	0		-0.1336210479736328	5.95696142578125	0		
0.003761759042739868	-0.0019458390474319457	0		0.53168798828125	-2.579259033203125	0		-0.9947366333007812	0.23624308776855468	0		-0.6975825805664062	-2.65360205078125	0		1.0699410400390625	-0.9202408447265625	0		2.814250244140625	-0.6496957397460937	0		4.32885888671875	-0.35766030883789063	0		5.9850166015625	0.49629058837890627	0		-0.13475912475585938	5.9578447265625	0		
-0.013390387535095215	-0.002786417007446289	0		0.5523345336914063	-2.594671630859375	0		-0.984893310546875	0.23498666381835936	0		-0.6498475952148437	-2.6634326171875	0		1.0638994140625	-0.9142427978515625	0		2.79623876953125	-0.6415051879882813	0		4.305740234375	-0.3563839111328125	0		5.9897529296875	0.4881530456542969	0		-0.13394935607910155	5.95672998046875	0		
